# xmcd
#
# Track frame offsets: 
#        150
#        13667
#        24475
#        37848
#        50153
#        61505
#        74851
#        87709
#        97577
#        111383
#        123272
#        136566
#        150247
#        160021
#        170733
#        180941
#        192603
#        204739
#        217139
#        230538
#
# Disc length: 3255 seconds
#
# Revision: 0
# Processed by: cddbd v1.5.2PL0 Copyright (c) Steve Scherf et al.
# Submitted via: ExactAudioCopy v1.0b3
#
DISCID=110cb514
DTITLE=Various Artist - Bad, Bad Whiskey
DYEAR=2014
DGENRE=Blues
TTITLE0=Amos Milburn - Bad, Bad Whiskey
TTITLE1=Smiley Lewis - Lost Weekend
TTITLE2=Amos Milburn - One Scotch, One Bourbon, One Beer
TTITLE3=Floyd Dixon - Wine, Wine, Wine
TTITLE4=Calvin Boze - Waiting and Drinking
TTITLE5=Louis Jordan - Whiskey Do Your Stuff
TTITLE6=Dave Bartholomew - Who Drank My Beer While I Was In The Rear
TTITLE7=Papa Lightfoot - Wine, Women and Whiskey
TTITLE8=Jimmy Rogers - Sloppy Drunk
TTITLE9=The Kidds - Drunk, Drunk, Drunk
TTITLE10=Amos Milburn - Just One More Drink
TTITLE11=John Lee Hooker - One Scotch, One Bourbon, One Beer
TTITLE12=T-Bone Walker - Party Girl
TTITLE13=Calvin Boze - Looped
TTITLE14=Little Sonny Jones - Winehead Baby
TTITLE15=Muddy Waters - Sittin' Here And Drinkin' (a.k.a. Whiskey Blue
TTITLE15=s)
TTITLE16=Louis Jordan - Fat Back and Corn Liquor
TTITLE17=Calvin Boze - Stinkin' From Drinkin'
TTITLE18=Jessie Belvin - All That Wine Is Gone
TTITLE19=Amos Milburn - Good Good Whiskey
EXTD=
EXTT0=
EXTT1=
EXTT2=
EXTT3=
EXTT4=
EXTT5=
EXTT6=
EXTT7=
EXTT8=
EXTT9=
EXTT10=
EXTT11=
EXTT12=
EXTT13=
EXTT14=
EXTT15=
EXTT16=
EXTT17=
EXTT18=
EXTT19=
PLAYORDER=
